<svg xmlns="http://www.w3.org/2000/svg" viewBox="0 0 76.11 16.81"><defs><style>.cls-1{fill:#036436;}.cls-2{fill:#e8d200;}.cls-3{fill:#cf161b;}.cls-4{fill:#1d1d1b;}</style></defs><title>logotipo tinka</title><g id="Capa_2" data-name="Capa 2"><g id="Modo_de_aislamiento" data-name="Modo de aislamiento"><polygon class="cls-1" points="29.45 2.48 18.61 2.48 17.99 4.82 21.69 4.82 19.26 13.62 22.73 13.62 25.13 4.82 28.8 4.82 29.45 2.48"/><polygon class="cls-1" points="49.92 2.48 46.69 2.48 45.09 8.69 36.76 2.11 33.82 13.62 37.05 13.62 38.63 7.4 46.98 13.98 49.92 2.48"/><polygon class="cls-1" points="52.02 2.48 55.48 2.48 52.43 13.62 48.97 13.62 52.02 2.48"/><polygon class="cls-1" points="62.72 13.62 58.32 8.04 65.62 2.48 61.38 2.48 54.14 8.02 54.06 8.07 54.09 8.07 54.34 8.41 58.48 13.62 62.72 13.62"/><polygon class="cls-1" points="71.48 3.82 70.66 1.96 70.35 2.27 67.97 4.59 68 4.59 58.82 13.62 62.69 13.62 69.21 7.2 70.27 9.41 68.12 9.49 65.75 11.84 71.36 11.76 72.21 13.62 76.11 13.62 71.48 3.82"/><polygon class="cls-1" points="30.38 5.57 33.84 5.57 31.62 13.62 28.18 13.62 30.38 5.57"/><polygon class="cls-1" points="31.23 2.48 34.7 2.48 34.05 4.8 30.59 4.8 31.23 2.48"/><polygon class="cls-1" points="0 8.41 0 8.41 0.03 7.97 0.05 7.56 0.1 7.14 0.18 6.73 0.28 6.32 0.39 5.91 0.52 5.52 0.67 5.13 0.85 4.77 1.03 4.41 1.24 4.05 1.45 3.71 1.68 3.38 1.94 3.07 2.2 2.76 2.48 2.48 2.77 2.19 3.08 1.93 3.39 1.68 3.72 1.44 4.06 1.24 4.42 1.03 4.78 0.85 5.14 0.67 5.53 0.52 5.92 0.39 6.33 0.28 6.75 0.18 7.16 0.1 7.58 0.05 7.99 0.03 8.43 0 8.87 0.03 9.31 0.05 9.72 0.1 10.13 0.18 10.55 0.28 10.94 0.39 11.32 0.52 11.71 0.67 12.07 0.85 12.44 1.03 12.8 1.24 13.13 1.44 13.47 1.68 13.78 1.93 14.09 2.19 14.4 2.48 14.66 2.76 14.94 3.07 15.18 3.38 15.41 3.71 15.64 4.05 15.85 4.41 16.03 4.77 16.18 5.13 16.34 5.52 16.47 5.91 16.6 6.32 16.68 6.73 16.75 7.14 16.8 7.56 16.86 7.97 16.86 8.41 16.86 8.84 16.8 9.28 16.75 9.7 16.68 10.11 16.6 10.52 16.47 10.91 16.34 11.29 16.18 11.68 16.03 12.04 15.85 12.43 15.64 12.76 15.41 13.1 15.18 13.44 14.94 13.74 14.66 14.05 14.4 14.36 14.09 14.62 13.78 14.9 13.47 15.14 13.13 15.37 12.8 15.6 12.44 15.81 12.07 15.99 11.71 16.14 11.32 16.3 10.94 16.43 10.55 16.55 10.13 16.63 9.72 16.71 9.31 16.76 8.87 16.81 8.43 16.81 7.99 16.81 7.58 16.76 7.16 16.71 6.75 16.63 6.33 16.55 5.92 16.43 5.53 16.3 5.14 16.14 4.78 15.99 4.42 15.81 4.06 15.6 3.72 15.37 3.39 15.14 3.08 14.9 2.77 14.62 2.48 14.36 2.2 14.05 1.94 13.74 1.68 13.44 1.45 13.1 1.24 12.76 1.03 12.43 0.85 12.04 0.67 11.68 0.52 11.29 0.39 10.91 0.28 10.52 0.18 10.11 0.1 9.7 0.05 9.28 0.03 8.84 0 8.41"/><polygon class="cls-2" points="1.73 8.41 1.73 8.41 1.76 8.07 1.78 7.74 1.81 7.4 1.86 7.07 1.94 6.73 2.04 6.42 2.15 6.11 2.27 5.8 2.4 5.52 2.53 5.24 2.71 4.95 2.87 4.67 3.26 4.15 3.7 3.69 4.16 3.25 4.68 2.86 4.96 2.71 5.25 2.53 5.53 2.4 5.82 2.27 6.13 2.14 6.44 2.04 6.75 1.93 7.08 1.88 7.42 1.8 7.76 1.78 8.09 1.75 8.43 1.73 8.79 1.75 9.13 1.78 9.46 1.8 9.77 1.88 10.11 1.93 10.42 2.04 10.73 2.14 11.04 2.27 11.32 2.4 11.63 2.53 11.89 2.71 12.18 2.86 12.69 3.25 13.16 3.69 13.6 4.15 13.99 4.67 14.17 4.95 14.32 5.24 14.48 5.52 14.61 5.8 14.71 6.11 14.84 6.42 14.92 6.73 14.99 7.07 15.05 7.4 15.1 7.74 15.12 8.07 15.12 8.41 15.12 8.77 15.1 9.1 15.05 9.44 14.99 9.75 14.92 10.08 14.84 10.39 14.71 10.7 14.61 11.01 14.48 11.32 14.32 11.6 14.17 11.89 13.99 12.14 13.6 12.66 13.16 13.13 12.69 13.56 12.18 13.95 11.89 14.13 11.63 14.29 11.32 14.44 11.04 14.57 10.73 14.67 10.42 14.8 10.11 14.88 9.77 14.96 9.46 15.01 9.13 15.06 8.79 15.09 8.43 15.09 8.09 15.09 7.76 15.06 7.42 15.01 7.08 14.96 6.75 14.88 6.44 14.8 6.13 14.67 5.82 14.57 5.53 14.44 5.25 14.29 4.96 14.13 4.68 13.95 4.16 13.56 3.7 13.13 3.26 12.66 2.87 12.14 2.71 11.89 2.53 11.6 2.4 11.32 2.27 11.01 2.15 10.7 2.04 10.39 1.94 10.08 1.86 9.75 1.81 9.44 1.78 9.1 1.76 8.77 1.73 8.41"/><polygon class="cls-3" points="3.18 8.41 3.18 8.41 3.23 7.87 3.31 7.35 3.44 6.86 3.59 6.37 3.83 5.93 4.08 5.49 4.39 5.08 4.73 4.72 5.09 4.38 5.51 4.07 5.95 3.82 6.39 3.58 6.88 3.43 7.37 3.3 7.88 3.22 8.43 3.17 8.97 3.22 9.49 3.3 10.01 3.43 10.47 3.58 10.94 3.82 11.38 4.07 11.76 4.38 12.15 4.72 12.49 5.08 12.77 5.49 13.03 5.93 13.26 6.37 13.44 6.86 13.57 7.35 13.65 7.87 13.68 8.41 13.65 8.95 13.57 9.46 13.44 9.98 13.26 10.44 13.03 10.91 12.77 11.35 12.49 11.73 12.15 12.12 11.76 12.46 11.38 12.74 10.94 13 10.47 13.23 10.01 13.41 9.49 13.54 8.97 13.62 8.43 13.64 7.88 13.62 7.37 13.54 6.88 13.41 6.39 13.23 5.95 13 5.51 12.74 5.09 12.46 4.73 12.12 4.39 11.73 4.08 11.35 3.83 10.91 3.59 10.44 3.44 9.98 3.31 9.46 3.23 8.95 3.18 8.41"/><polygon class="cls-2" points="4.76 8.41 4.76 8.41 4.78 8.04 4.83 7.68 4.91 7.32 5.04 6.99 5.2 6.65 5.38 6.37 5.58 6.09 5.84 5.83 6.1 5.57 6.39 5.36 6.67 5.18 7.01 5.03 7.34 4.9 7.7 4.82 8.07 4.77 8.43 4.75 8.82 4.77 9.18 4.82 9.54 4.9 9.88 5.03 10.19 5.18 10.5 5.36 10.78 5.57 11.04 5.83 11.27 6.09 11.48 6.37 11.66 6.65 11.81 6.99 11.94 7.32 12.05 7.68 12.1 8.04 12.13 8.41 12.1 8.79 12.05 9.15 11.94 9.52 11.81 9.85 11.66 10.16 11.48 10.47 11.27 10.75 11.04 11.01 10.78 11.24 10.5 11.45 10.19 11.63 9.88 11.78 9.54 11.91 9.18 12.02 8.82 12.07 8.43 12.09 8.07 12.07 7.7 12.02 7.34 11.91 7.01 11.78 6.67 11.63 6.39 11.45 6.1 11.24 5.84 11.01 5.58 10.75 5.38 10.47 5.2 10.16 5.04 9.85 4.91 9.52 4.83 9.15 4.78 8.79 4.76 8.41"/><polygon class="cls-1" points="6.08 8.41 6.08 8.41 6.1 8.17 6.13 7.94 6.18 7.71 6.28 7.5 6.36 7.3 6.49 7.09 6.62 6.91 6.77 6.76 6.93 6.6 7.11 6.47 7.32 6.34 7.52 6.27 7.73 6.16 7.96 6.11 8.2 6.09 8.43 6.06 8.69 6.09 8.92 6.11 9.13 6.16 9.36 6.27 9.57 6.34 9.75 6.47 9.93 6.6 10.08 6.76 10.24 6.91 10.39 7.09 10.5 7.3 10.6 7.5 10.68 7.71 10.73 7.94 10.78 8.17 10.78 8.41 10.78 8.66 10.73 8.9 10.68 9.1 10.6 9.34 10.5 9.54 10.39 9.72 10.24 9.9 10.08 10.06 9.93 10.21 9.75 10.37 9.57 10.47 9.36 10.57 9.13 10.65 8.92 10.7 8.69 10.75 8.43 10.75 8.2 10.75 7.96 10.7 7.73 10.65 7.52 10.57 7.32 10.47 7.11 10.37 6.93 10.21 6.77 10.06 6.62 9.9 6.49 9.72 6.36 9.54 6.28 9.34 6.18 9.1 6.13 8.9 6.1 8.66 6.08 8.41"/><polygon class="cls-4" points="8.43 8.38 14.38 2.48 18.61 2.48 8.43 8.38"/></g></g></svg>